<svg xmlns="http://www.w3.org/2000/svg" viewBox="0 0 100 100">
  <!-- خلفية دائرية خضراء -->
  <circle cx="50" cy="50" r="50" fill="#2f6d3f"/>

  <!-- قلب -->
  <path d="M50 32 C50 32 42 24 36 28 C30 32 30 40 36 46 L50 60 L64 46 C70 40 70 32 64 28 C58 24 50 32 50 32Z"
        fill="white" opacity="0.95"/>

  <!-- يد ممدودة -->
  <path d="M28 62 Q28 58 33 58 L45 58 Q47 56 50 56 L62 56 Q65 56 65 59 Q65 61 62 61 L55 61 Q57 61 57 64 Q57 67 54 67 L47 67 Q49 67 49 70 Q49 73 46 73 L36 73 Q33 73 31 71 L28 68 Z"
        fill="white" opacity="0.95"/>

  <!-- ذراع/كف -->
  <rect x="22" y="68" width="10" height="16" rx="4" fill="white" opacity="0.95"/>
</svg>
